<?xml version="1.0" standalone="no"?>
<!DOCTYPE svg PUBLIC "-//W3C//DTD SVG 20010904//EN"
 "http://www.w3.org/TR/2001/REC-SVG-20010904/DTD/svg10.dtd">
<svg version="1.0" xmlns="http://www.w3.org/2000/svg"
 width="512.000000pt" height="512.000000pt" viewBox="0 0 512.000000 512.000000"
 preserveAspectRatio="xMidYMid meet">

<g transform="translate(0.000000,512.000000) scale(0.100000,-0.100000)"
fill="#000000" stroke="none">
<path d="M2470 4505 c-104 -23 -217 -85 -291 -158 -163 -163 -207 -332 -159
-612 49 -285 -11 -504 -198 -722 -174 -204 -256 -369 -296 -599 -16 -91 -21
-275 -10 -357 l7 -47 27 43 c44 69 114 85 165 36 12 -10 88 -124 170 -254
l150 -235 41 0 c95 0 194 60 194 118 0 38 -17 55 -93 94 -89 44 -156 97 -289
226 -135 131 -132 121 -103 288 63 362 232 788 401 1009 l34 45 -50 49 c-28
28 -50 58 -50 68 0 10 26 47 58 83 l59 64 -38 36 c-106 101 -54 324 76 324 75
0 130 -73 130 -174 l0 -66 50 13 c49 13 73 10 156 -22 13 -5 14 5 11 57 -3 51
1 71 20 107 54 104 142 111 212 18 25 -33 34 -138 16 -191 -6 -20 -29 -51 -50
-68 l-38 -32 32 -24 c62 -46 116 -104 116 -125 0 -12 -9 -33 -20 -47 l-19 -25
33 -40 c64 -77 148 -217 211 -348 113 -234 225 -610 242 -814 6 -73 6 -74 -25
-106 -100 -103 -96 -285 9 -384 107 -101 285 -97 387 7 76 79 98 203 53 305
-19 43 -22 70 -25 224 -2 143 -7 191 -25 256 -63 232 -151 390 -309 558 -135
142 -174 203 -224 349 l-32 93 -1 260 c0 245 -1 264 -23 327 -79 227 -300 393
-537 404 -57 2 -114 -2 -155 -11z"/>
<path d="M2247 3888 c-40 -31 -49 -132 -17 -185 25 -41 38 -41 78 0 25 26 32
41 32 73 0 92 -46 147 -93 112z"/>
<path d="M2718 3883 c-24 -26 -37 -96 -28 -140 9 -39 43 -72 72 -73 26 0 52
58 52 117 0 84 -56 140 -96 96z"/>
<path d="M2176 3491 c-16 -18 -15 -20 31 -59 78 -65 174 -112 255 -126 90 -15
153 -6 233 33 57 28 165 119 165 139 0 5 -11 15 -25 22 -23 12 -28 10 -75 -34
-77 -72 -147 -101 -245 -101 -94 0 -151 22 -251 99 -34 25 -64 46 -66 46 -3 0
-13 -8 -22 -19z"/>
<path d="M2204 1332 c36 -73 40 -135 12 -203 -7 -15 0 -15 71 2 109 27 240 34
361 20 57 -7 111 -15 119 -18 13 -5 14 -3 3 17 -7 14 -11 48 -8 86 l4 64 -51
-7 c-27 -5 -99 -8 -160 -7 -120 1 -196 17 -307 64 l-68 29 24 -47z"/>
</g>
</svg>
