<?xml version="1.0" standalone="no"?>
<!DOCTYPE svg PUBLIC "-//W3C//DTD SVG 20010904//EN"
 "http://www.w3.org/TR/2001/REC-SVG-20010904/DTD/svg10.dtd">
<svg version="1.0" xmlns="http://www.w3.org/2000/svg"
 width="2048.000000pt" height="2048.000000pt" viewBox="0 0 2048.000000 2048.000000"
 preserveAspectRatio="xMidYMid meet">

<g transform="translate(0.000000,2048.000000) scale(0.100000,-0.100000)"
fill="#000000" stroke="none">
<path d="M10205 17934 c-213 -29 -442 -90 -636 -169 -129 -53 -349 -162 -438
-218 -424 -265 -657 -640 -760 -1227 -38 -214 -52 -397 -58 -745 -8 -490 13
-910 98 -1955 27 -335 38 -519 34 -570 -33 -395 -244 -779 -753 -1375 -188
-220 -575 -800 -759 -1140 -88 -162 -420 -845 -501 -1030 -249 -571 -427
-1104 -493 -1476 -34 -193 -31 -479 5 -479 7 0 41 14 74 31 74 37 206 63 278
54 223 -27 582 -392 967 -983 61 -95 168 -257 235 -360 68 -103 207 -326 310
-497 456 -762 530 -879 718 -1137 244 -333 308 -448 362 -646 25 -92 26 -110
26 -341 l0 -243 65 6 c100 11 760 25 1131 26 184 0 472 7 640 16 168 8 449 15
625 15 358 1 549 -13 834 -62 96 -16 176 -28 177 -26 1 1 -2 58 -7 127 -16
218 2 408 86 910 70 416 107 662 101 667 -2 3 -33 -18 -68 -45 -551 -430
-1338 -763 -1944 -823 -347 -34 -818 36 -1179 176 -317 122 -557 275 -750 476
l-90 94 62 11 c34 6 72 18 85 26 13 8 48 23 78 33 82 26 171 72 207 107 41 40
79 126 94 214 15 96 -5 198 -62 312 -56 110 -112 162 -574 531 -643 513 -951
777 -1239 1061 -297 293 -392 409 -430 522 -73 217 -90 419 -60 710 42 412
138 714 390 1218 96 191 294 542 326 575 5 6 -1 -15 -13 -45 -51 -126 -212
-619 -264 -809 -111 -408 -158 -699 -159 -976 -1 -209 16 -309 68 -420 39 -82
35 -93 65 146 73 583 243 1150 501 1667 105 211 172 320 281 456 342 426 748
1236 879 1751 45 176 56 264 70 555 6 118 13 247 17 286 l6 70 -50 37 c-87 64
-188 178 -227 259 -85 170 -63 351 60 487 24 27 102 96 172 152 70 56 131 106
136 110 5 4 -21 40 -57 79 -113 123 -201 329 -226 535 -30 247 6 471 110 684
66 134 168 242 275 293 62 30 78 33 160 33 84 0 95 -3 165 -37 188 -93 331
-329 375 -621 19 -119 13 -342 -10 -447 -8 -36 -14 -66 -13 -67 1 -1 25 3 52
9 75 15 267 12 375 -6 52 -9 145 -29 205 -45 61 -16 111 -28 113 -26 1 1 -7
36 -18 76 -118 421 -19 880 249 1148 170 170 395 231 601 161 248 -84 445
-336 521 -670 29 -124 36 -356 15 -485 -36 -215 -127 -418 -248 -550 l-57 -62
72 -28 c158 -61 254 -142 282 -238 17 -59 11 -154 -20 -325 l-16 -82 30 -88
c97 -289 557 -1470 856 -2197 59 -143 182 -415 275 -605 184 -376 236 -495
297 -670 98 -279 186 -772 229 -1280 24 -286 25 -860 1 -1014 -9 -60 -15 -112
-12 -115 8 -7 118 103 187 188 242 300 426 684 505 1056 25 121 27 147 27 365
0 208 -2 247 -22 340 -101 461 -374 881 -804 1232 -54 45 -98 83 -98 85 0 6
92 -46 195 -110 210 -130 484 -369 628 -547 189 -234 318 -503 374 -776 26
-127 26 -595 0 -769 -56 -375 -164 -732 -310 -1025 l-62 -125 -130 -7 c-79 -4
-160 -14 -208 -27 -94 -25 -215 -86 -280 -142 -47 -40 -47 -42 -28 -56 12 -8
21 -19 21 -25 0 -6 14 -26 31 -46 87 -99 115 -249 94 -493 -7 -90 -6 -99 14
-133 79 -127 264 -196 489 -183 140 8 265 54 407 150 81 55 180 155 200 203 9
21 31 55 49 74 19 19 68 89 110 156 l76 121 164 61 c201 75 259 92 357 99 l76
6 57 176 c31 97 64 212 72 256 9 44 27 127 40 185 36 161 47 303 41 505 -18
557 -214 1209 -590 1960 -246 493 -390 723 -907 1445 -446 624 -586 836 -752
1144 -215 399 -378 845 -488 1339 -90 403 -108 643 -71 949 32 266 27 402 -25
673 -107 555 -290 1011 -563 1400 -154 220 -470 466 -706 550 -27 10 -79 32
-115 50 -238 120 -515 206 -774 240 -145 19 -470 18 -611 -1z"/>
<path d="M10984 15212 c-127 -45 -231 -163 -284 -322 -31 -92 -38 -262 -16
-362 20 -91 76 -211 108 -231 13 -9 101 -50 197 -92 l173 -76 47 16 c128 43
241 183 288 357 21 78 23 260 4 338 -38 154 -143 298 -258 355 -76 37 -183 44
-259 17z"/>
<path d="M9126 15206 c-184 -68 -255 -429 -142 -728 40 -106 105 -197 171
-238 l33 -21 84 55 c46 29 114 69 151 87 66 33 68 35 85 89 27 87 24 311 -6
415 -43 148 -134 284 -220 329 -46 24 -111 29 -156 12z"/>
<path d="M9609 14186 c-41 -28 -92 -100 -87 -124 2 -9 15 -23 30 -31 25 -14
28 -13 83 37 31 29 64 52 74 52 23 0 61 28 61 45 0 19 -26 32 -80 40 -38 5
-51 2 -81 -19z"/>
<path d="M10213 14183 c-7 -2 -13 -11 -13 -18 0 -15 78 -85 94 -85 6 0 38 -18
70 -40 71 -49 100 -49 104 -3 3 26 -4 40 -32 69 -20 21 -36 41 -36 46 0 26
-142 50 -187 31z"/>
<path d="M11428 13781 c-68 -22 -200 -92 -418 -223 -305 -184 -797 -408 -980
-448 -38 -8 -139 -11 -325 -8 l-270 4 -110 39 c-60 21 -135 53 -166 72 -32 18
-79 42 -106 54 -26 11 -99 62 -163 113 -63 51 -128 102 -144 114 -31 23 -80
29 -92 11 -8 -14 265 -291 350 -355 100 -76 161 -106 386 -195 l75 -29 235 0
c308 0 445 23 669 111 118 47 495 238 603 306 53 34 146 87 207 118 134 69
339 202 375 245 35 42 33 58 -9 76 -42 17 -47 17 -117 -5z"/>
</g>
</svg>
